<?xml version="1.0" standalone="no"?>
<!DOCTYPE svg PUBLIC "-//W3C//DTD SVG 20010904//EN"
 "http://www.w3.org/TR/2001/REC-SVG-20010904/DTD/svg10.dtd">
<svg version="1.0" xmlns="http://www.w3.org/2000/svg"
 width="96.000000pt" height="96.000000pt" viewBox="0 0 96.000000 96.000000"
 preserveAspectRatio="xMidYMid meet">
<metadata>
Created by potrace 1.14, written by Peter Selinger 2001-2017
</metadata>
<g transform="translate(0.000000,96.000000) scale(0.100000,-0.100000)"
fill="#000000" stroke="none">
<path d="M145 790 c-8 -13 -5 -18 164 -191 74 -76 138 -143 142 -151 14 -21
10 -221 -4 -239 -7 -9 -50 -29 -97 -45 -56 -19 -85 -34 -85 -44 0 -13 31 -15
215 -15 184 0 215 2 215 15 0 10 -29 25 -85 44 -47 17 -90 37 -97 45 -8 10
-12 55 -13 125 l0 109 89 91 c201 207 231 240 228 250 -5 15 -663 21 -672 6z"/>
</g>
</svg>
