<svg width="282" height="282" fill="none" xmlns="http://www.w3.org/2000/svg"><g style="mix-blend-mode:hard-light" filter="url(#filter0_f_579_2998)"><path d="M167.147 38.525c.589-.908 1.996-.531 2.053.55l3.781 72.041a4.882 4.882 0 003.612 4.46l69.683 18.666c1.046.28 1.122 1.735.112 2.123l-67.347 25.858a4.881 4.881 0 00-3.125 4.813l3.78 72.041c.057 1.081-1.303 1.603-1.984.762l-45.404-56.06a4.882 4.882 0 00-5.544-1.485l-67.346 25.857c-1.01.389-1.928-.744-1.338-1.652l39.286-60.504a4.883 4.883 0 00-.301-5.732l-45.403-56.06c-.681-.84.112-2.063 1.158-1.782l69.683 18.666a4.883 4.883 0 005.358-2.058l39.286-60.504z" stroke="#F32E7C" stroke-width="3.765"/></g><g style="mix-blend-mode:hard-light" filter="url(#filter1_f_579_2998)"><path d="M167.632 38.84c.097-.15.189-.199.256-.222a.578.578 0 01.335-.005.58.58 0 01.289.172c.046.054.1.142.11.32l3.78 72.041a5.462 5.462 0 004.041 4.989l69.683 18.666c.173.047.248.118.291.175a.576.576 0 01.108.317.577.577 0 01-.074.327c-.037.061-.104.14-.271.204l-67.346 25.858a5.462 5.462 0 00-3.497 5.385l3.781 72.04a.505.505 0 01-.076.331.584.584 0 01-.269.2.574.574 0 01-.334.031c-.069-.016-.165-.056-.277-.195l-45.403-56.059a5.462 5.462 0 00-6.202-1.662l-67.346 25.858a.5.5 0 01-.338.03.577.577 0 01-.274-.194.579.579 0 01-.133-.308.503.503 0 01.1-.324L97.85 146.31a5.46 5.46 0 00-.336-6.411l-45.403-56.06c-.112-.139-.131-.24-.133-.312a.578.578 0 01.1-.32.579.579 0 01.252-.221c.065-.028.166-.052.339-.006l69.683 18.666a5.463 5.463 0 005.994-2.301l39.285-60.505z" stroke="#FF26C2" stroke-width="4.923"/></g><g style="mix-blend-mode:hard-light" filter="url(#filter2_ddi_579_2998)"><path d="M167.147 38.525c.589-.908 1.996-.531 2.053.55l3.781 72.041a4.882 4.882 0 003.612 4.46l69.683 18.666c1.046.28 1.122 1.735.112 2.123l-67.347 25.858a4.881 4.881 0 00-3.125 4.813l3.78 72.041c.057 1.081-1.303 1.603-1.984.762l-45.404-56.06a4.882 4.882 0 00-5.544-1.485l-67.346 25.857c-1.01.389-1.928-.744-1.338-1.652l39.286-60.504a4.883 4.883 0 00-.301-5.732l-45.403-56.06c-.681-.84.112-2.063 1.158-1.782l69.683 18.666a4.883 4.883 0 005.358-2.058l39.286-60.504z" stroke="#FB37FF" stroke-opacity=".2" stroke-width="3.765"/></g><g filter="url(#filter3_f_579_2998)"><path d="M166.539 38.13c.972-1.495 3.291-.874 3.384.907l3.781 72.041a4.159 4.159 0 003.076 3.799l69.683 18.666c1.724.461 1.85 2.858.184 3.498l-67.346 25.857a4.157 4.157 0 00-2.662 4.1l3.78 72.041c.094 1.782-2.147 2.642-3.27 1.256l-45.403-56.06a4.158 4.158 0 00-4.722-1.265l-67.346 25.857c-1.666.64-3.177-1.226-2.205-2.722l39.286-60.504a4.159 4.159 0 00-.257-4.882L51.1 84.659c-1.122-1.386.185-3.4 1.908-2.938l69.683 18.666a4.16 4.16 0 004.564-1.752l39.285-60.504z" stroke="#FB37FF" stroke-width="2.317"/></g><g filter="url(#filter4_f_579_2998)"><path d="M166.054 37.815c1.277-1.966 4.325-1.15 4.447 1.192l3.781 72.04a3.58 3.58 0 002.648 3.27l69.683 18.666c2.266.607 2.431 3.758.242 4.599l-67.347 25.857a3.58 3.58 0 00-2.291 3.529l3.781 72.041c.123 2.341-2.823 3.472-4.299 1.65l-45.403-56.06a3.578 3.578 0 00-4.064-1.088l-67.347 25.857c-2.19.841-4.175-1.611-2.898-3.578l39.286-60.505a3.578 3.578 0 00-.22-4.201l-45.404-56.06c-1.476-1.823.243-4.469 2.508-3.862l69.683 18.666a3.58 3.58 0 003.928-1.508l39.286-60.505z" stroke="#fff" stroke-width="1.158"/></g><defs><filter id="filter0_f_579_2998" x="32.143" y="18.755" width="234.219" height="240.763" filterUnits="userSpaceOnUse" color-interpolation-filters="sRGB"><feFlood flood-opacity="0" result="BackgroundImageFix"/><feBlend in="SourceGraphic" in2="BackgroundImageFix" result="shape"/><feGaussianBlur stdDeviation="8.688" result="effect1_foregroundBlur_579_2998"/></filter><filter id="filter1_f_579_2998" x="43.726" y="30.338" width="211.053" height="217.597" filterUnits="userSpaceOnUse" color-interpolation-filters="sRGB"><feFlood flood-opacity="0" result="BackgroundImageFix"/><feBlend in="SourceGraphic" in2="BackgroundImageFix" result="shape"/><feGaussianBlur stdDeviation="2.896" result="effect1_foregroundBlur_579_2998"/></filter><filter id="filter2_ddi_579_2998" x="41.988" y="34.392" width="214.528" height="221.072" filterUnits="userSpaceOnUse" color-interpolation-filters="sRGB"><feFlood flood-opacity="0" result="BackgroundImageFix"/><feColorMatrix in="SourceAlpha" values="0 0 0 0 0 0 0 0 0 0 0 0 0 0 0 0 0 0 127 0" result="hardAlpha"/><feOffset dy="3.765"/><feGaussianBlur stdDeviation="1.448"/><feColorMatrix values="0 0 0 0 0.3 0 0 0 0 0 0 0 0 0 0.26 0 0 0 0.7 0"/><feBlend mode="multiply" in2="BackgroundImageFix" result="effect1_dropShadow_579_2998"/><feColorMatrix in="SourceAlpha" values="0 0 0 0 0 0 0 0 0 0 0 0 0 0 0 0 0 0 127 0" result="hardAlpha"/><feOffset dy="5.792"/><feGaussianBlur stdDeviation="3.765"/><feColorMatrix values="0 0 0 0 0.6 0 0 0 0 0 0 0 0 0 0.6 0 0 0 1 0"/><feBlend mode="color-dodge" in2="effect1_dropShadow_579_2998" result="effect2_dropShadow_579_2998"/><feBlend in="SourceGraphic" in2="effect2_dropShadow_579_2998" result="shape"/><feColorMatrix in="SourceAlpha" values="0 0 0 0 0 0 0 0 0 0 0 0 0 0 0 0 0 0 127 0" result="hardAlpha"/><feOffset dx="-.376" dy=".753"/><feGaussianBlur stdDeviation=".188"/><feComposite in2="hardAlpha" operator="arithmetic" k2="-1" k3="1"/><feColorMatrix values="0 0 0 0 1 0 0 0 0 1 0 0 0 0 1 0 0 0 0.5 0"/><feBlend in2="shape" result="effect3_innerShadow_579_2998"/></filter><filter id="filter3_f_579_2998" x="48.938" y="35.55" width="200.628" height="207.172" filterUnits="userSpaceOnUse" color-interpolation-filters="sRGB"><feFlood flood-opacity="0" result="BackgroundImageFix"/><feBlend in="SourceGraphic" in2="BackgroundImageFix" result="shape"/><feGaussianBlur stdDeviation=".29" result="effect1_foregroundBlur_579_2998"/></filter><filter id="filter4_f_579_2998" x="49.132" y="35.743" width="200.242" height="206.785" filterUnits="userSpaceOnUse" color-interpolation-filters="sRGB"><feFlood flood-opacity="0" result="BackgroundImageFix"/><feBlend in="SourceGraphic" in2="BackgroundImageFix" result="shape"/><feGaussianBlur stdDeviation=".193" result="effect1_foregroundBlur_579_2998"/></filter></defs></svg>