<svg width="395" height="354" fill="none" xmlns="http://www.w3.org/2000/svg"><g style="mix-blend-mode:hard-light" filter="url(#filter0_f_2194_156)"><path d="M59.823 69.374v0c0 47.615 14.541 84.87 31.01 112.368 3.501 5.846 10.318 11.805 19.935 17.514 9.515 5.647 21.268 10.756 33.994 15.123 25.482 8.744 54.182 14.284 75.212 15.392l5.516.291v59.243s0 0 0 0c0 1.115.289 2.155.767 2.985.475.826 1.078 1.346 1.636 1.62a2.423 2.423 0 001.587.217c.517-.107 1.114-.409 1.668-1.016h.001l102.665-112.304c.385-.421.73-.972.979-1.637a6.243 6.243 0 00.384-2.17c0-.764-.136-1.504-.384-2.17a5.043 5.043 0 00-.979-1.637L231.149 60.889h-.001c-.554-.607-1.151-.91-1.668-1.016a2.423 2.423 0 00-1.587.217c-.558.274-1.161.794-1.636 1.62-.478.83-.767 1.87-.767 2.985 0 0 0 0 0 0v59.353l-6.024-.209c-13.624-.472-22.477-2.461-30.118-6.103-5.648-2.692-10.582-6.313-15.97-10.268-1.577-1.157-3.192-2.343-4.877-3.543-8.998-6.41-12.649-14.99-14.714-22.3-.635-2.25-1.192-4.683-1.671-6.775-.245-1.074-.47-2.058-.675-2.882-.708-2.846-1.305-4.431-1.919-5.332a.236.236 0 00-.044-.048 2.285 2.285 0 00-.318-.222c-.212-.13-.471-.271-.894-.493l-.148-.077a52.864 52.864 0 01-.834-.442c-.23-.08-.443-.156-.646-.228a32.187 32.187 0 00-1.793-.598c-.906-.266-1.5-.358-1.864-.362l-81.245.901c-.37.273-.737.657-1.058 1.172-.528.85-.855 1.946-.855 3.135z" stroke="#F32E7C" stroke-width="11.646"/></g><g style="mix-blend-mode:hard-light" filter="url(#filter1_f_2194_156)"><path d="M61.614 69.373v.001c0 47.23 14.42 84.17 30.757 111.448 3.278 5.473 9.8 11.247 19.312 16.893 9.377 5.566 21.009 10.628 33.66 14.969 25.342 8.696 53.878 14.199 74.725 15.298l7.214.38v60.943c0 .814.212 1.544.527 2.09.313.543.66.801.872.906.193.094.327.095.435.072.123-.025.391-.122.709-.47l.001-.001 102.666-112.304c.222-.243.45-.593.622-1.055.172-.461.271-.989.271-1.543 0-.554-.099-1.082-.271-1.544a3.26 3.26 0 00-.622-1.055L229.826 62.098l-.001-.001c-.318-.348-.586-.445-.709-.47-.108-.023-.242-.022-.435.072-.212.105-.559.363-.872.905-.315.547-.527 1.277-.527 2.09v61.209l-7.878-.273c-13.777-.477-22.893-2.495-30.827-6.276-5.816-2.773-10.933-6.53-16.347-10.505-1.557-1.143-3.138-2.304-4.768-3.465-9.472-6.747-13.282-15.778-15.399-23.272-.646-2.287-1.228-4.831-1.714-6.952-.241-1.052-.458-2-.647-2.76-.63-2.534-1.126-3.846-1.522-4.534-.152-.09-.361-.204-.745-.405l-.143-.075a57.498 57.498 0 01-.74-.391 569.232 569.232 0 01-.902-.318c-.488-.17-.913-.313-1.311-.43-.815-.24-1.227-.285-1.362-.289l-80.536.893a2.91 2.91 0 00-.242.335c-.343.552-.585 1.319-.584 2.187z" stroke="#FF26C2" stroke-width="15.229"/></g><g style="mix-blend-mode:hard-light" filter="url(#filter2_ddi_2194_156)"><path d="M59.823 69.374v0c0 47.615 14.541 84.87 31.01 112.368 3.501 5.846 10.318 11.805 19.935 17.514 9.515 5.647 21.268 10.756 33.994 15.123 25.482 8.744 54.182 14.284 75.212 15.392l5.516.291v59.243s0 0 0 0c0 1.115.289 2.155.767 2.985.475.826 1.078 1.346 1.636 1.62a2.423 2.423 0 001.587.217c.517-.107 1.114-.409 1.668-1.016h.001l102.665-112.304c.385-.421.73-.972.979-1.637a6.243 6.243 0 00.384-2.17c0-.764-.136-1.504-.384-2.17a5.043 5.043 0 00-.979-1.637L231.149 60.889h-.001c-.554-.607-1.151-.91-1.668-1.016a2.423 2.423 0 00-1.587.217c-.558.274-1.161.794-1.636 1.62-.478.83-.767 1.87-.767 2.985 0 0 0 0 0 0v59.353l-6.024-.209c-13.624-.472-22.477-2.461-30.118-6.103-5.648-2.692-10.582-6.313-15.97-10.268-1.577-1.157-3.192-2.343-4.877-3.543-8.998-6.41-12.649-14.99-14.714-22.3-.635-2.25-1.192-4.683-1.671-6.775-.245-1.074-.47-2.058-.675-2.882-.708-2.846-1.305-4.431-1.919-5.332a.236.236 0 00-.044-.048 2.285 2.285 0 00-.318-.222c-.212-.13-.471-.271-.894-.493l-.148-.077a52.864 52.864 0 01-.834-.442c-.23-.08-.443-.156-.646-.228a32.187 32.187 0 00-1.793-.598c-.906-.266-1.5-.358-1.864-.362l-81.245.901c-.37.273-.737.657-1.058 1.172-.528.85-.855 1.946-.855 3.135z" stroke="#FB37FF" stroke-opacity=".2" stroke-width="11.646"/></g><g filter="url(#filter3_f_2194_156)"><path d="M57.583 69.374v0c0 48.096 14.695 85.744 31.33 113.519 3.778 6.31 10.963 12.502 20.712 18.289 9.686 5.749 21.59 10.916 34.41 15.315 25.658 8.805 54.562 14.39 75.821 15.51l3.394.179v57.119s0 0 0 0c.001 1.492.385 2.92 1.066 4.102.68 1.181 1.601 2.028 2.591 2.513a4.66 4.66 0 003.028.4c1.01-.209 2.017-.768 2.866-1.698h.001l102.666-112.305h.001a7.297 7.297 0 001.422-2.364 8.465 8.465 0 00.526-2.953 8.465 8.465 0 00-.526-2.953 7.297 7.297 0 00-1.422-2.364l-.001-.001L232.802 59.378h-.001c-.849-.93-1.856-1.489-2.866-1.698a4.662 4.662 0 00-3.028.4c-.99.485-1.911 1.332-2.591 2.513-.681 1.182-1.065 2.61-1.066 4.102 0 0 0 0 0 0v57.035l-3.707-.128c-13.431-.465-21.956-2.419-29.231-5.886-5.439-2.593-10.145-6.045-15.496-9.972-1.602-1.175-3.261-2.392-5.015-3.642-8.407-5.989-11.859-14.007-13.858-21.085-.624-2.206-1.149-4.504-1.618-6.558-.251-1.097-.486-2.125-.711-3.03-.71-2.857-1.382-4.791-2.241-6.053-.225-.33-.515-.594-1.04-.917a17.54 17.54 0 00-1.029-.569 28.8 28.8 0 00-.153-.08c-.283-.148-.613-.32-.953-.508-.27-.093-.532-.184-.787-.274-1.729-.604-3.136-1.096-4.435-1.1h-.017l-81.872.908c-.869.462-1.679 1.206-2.31 2.22-.76 1.22-1.194 2.731-1.194 4.319z" stroke="#FB37FF" stroke-width="7.167"/></g><g filter="url(#filter4_f_2194_156)"><path d="M234.124 295.831l102.667-112.305v-.001a9.04 9.04 0 001.778-2.946c.42-1.125.639-2.343.639-3.579 0-1.236-.219-2.454-.639-3.58a9.05 9.05 0 00-1.778-2.946s0 0 0 0L234.124 58.169h0c-1.086-1.188-2.421-1.952-3.825-2.244a6.451 6.451 0 00-4.18.546c-1.335.654-2.512 1.763-3.356 3.227-.844 1.466-1.304 3.204-1.304 4.997v55.179l-1.854-.064c-13.278-.46-21.539-2.384-28.523-5.713-5.271-2.512-9.796-5.831-15.114-9.732a450.821 450.821 0 00-5.128-3.723c-7.933-5.652-11.226-13.22-13.173-20.113-.614-2.172-1.115-4.367-1.576-6.387a170.035 170.035 0 00-.738-3.147c-.712-2.865-1.443-5.079-2.5-6.63-.411-.603-.921-1.027-1.583-1.434a18.76 18.76 0 00-1.135-.63 17.652 17.652 0 00-.157-.081c-.326-.17-.685-.358-1.049-.562-.279-.096-.559-.195-.84-.294-1.737-.61-3.487-1.227-5.121-1.23h-.009l-82.294.914c-1.335.599-2.53 1.647-3.41 3.061-.943 1.517-1.464 3.358-1.463 5.265 0 48.481 14.816 86.444 31.583 114.44 4.002 6.682 11.481 13.059 21.336 18.909 9.823 5.83 21.848 11.044 34.742 15.469 25.798 8.852 54.867 14.474 76.308 15.605l1.698.089v55.419c0 1.793.46 3.531 1.304 4.996.844 1.465 2.021 2.574 3.356 3.228a6.456 6.456 0 004.18.546c1.404-.292 2.739-1.056 3.825-2.244h0z" stroke="#fff" stroke-width="3.583"/></g><defs><filter id="filter0_f_2194_156" x=".25" y=".25" width="394.499" height="353.499" filterUnits="userSpaceOnUse" color-interpolation-filters="sRGB"><feFlood flood-opacity="0" result="BackgroundImageFix"/><feBlend in="SourceGraphic" in2="BackgroundImageFix" result="shape"/><feGaussianBlur stdDeviation="26.875" result="effect1_foregroundBlur_2194_156"/></filter><filter id="filter1_f_2194_156" x="36.083" y="36.083" width="322.833" height="281.833" filterUnits="userSpaceOnUse" color-interpolation-filters="sRGB"><feFlood flood-opacity="0" result="BackgroundImageFix"/><feBlend in="SourceGraphic" in2="BackgroundImageFix" result="shape"/><feGaussianBlur stdDeviation="8.958" result="effect1_foregroundBlur_2194_156"/></filter><filter id="filter2_ddi_2194_156" x="30.708" y="48.625" width="333.583" height="292.583" filterUnits="userSpaceOnUse" color-interpolation-filters="sRGB"><feFlood flood-opacity="0" result="BackgroundImageFix"/><feColorMatrix in="SourceAlpha" values="0 0 0 0 0 0 0 0 0 0 0 0 0 0 0 0 0 0 127 0" result="hardAlpha"/><feOffset dy="11.646"/><feGaussianBlur stdDeviation="4.479"/><feColorMatrix values="0 0 0 0 0.3 0 0 0 0 0 0 0 0 0 0.26 0 0 0 0.7 0"/><feBlend mode="multiply" in2="BackgroundImageFix" result="effect1_dropShadow_2194_156"/><feColorMatrix in="SourceAlpha" values="0 0 0 0 0 0 0 0 0 0 0 0 0 0 0 0 0 0 127 0" result="hardAlpha"/><feOffset dy="17.917"/><feGaussianBlur stdDeviation="11.646"/><feColorMatrix values="0 0 0 0 0.6 0 0 0 0 0 0 0 0 0 0.6 0 0 0 1 0"/><feBlend mode="color-dodge" in2="effect1_dropShadow_2194_156" result="effect2_dropShadow_2194_156"/><feBlend in="SourceGraphic" in2="effect2_dropShadow_2194_156" result="shape"/><feColorMatrix in="SourceAlpha" values="0 0 0 0 0 0 0 0 0 0 0 0 0 0 0 0 0 0 127 0" result="hardAlpha"/><feOffset dx="-1.165" dy="2.329"/><feGaussianBlur stdDeviation=".582"/><feComposite in2="hardAlpha" operator="arithmetic" k2="-1" k3="1"/><feColorMatrix values="0 0 0 0 1 0 0 0 0 1 0 0 0 0 1 0 0 0 0.5 0"/><feBlend in2="shape" result="effect3_innerShadow_2194_156"/></filter><filter id="filter3_f_2194_156" x="52.208" y="52.208" width="290.583" height="249.583" filterUnits="userSpaceOnUse" color-interpolation-filters="sRGB"><feFlood flood-opacity="0" result="BackgroundImageFix"/><feBlend in="SourceGraphic" in2="BackgroundImageFix" result="shape"/><feGaussianBlur stdDeviation=".896" result="effect1_foregroundBlur_2194_156"/></filter><filter id="filter4_f_2194_156" x="52.806" y="52.806" width="289.389" height="248.389" filterUnits="userSpaceOnUse" color-interpolation-filters="sRGB"><feFlood flood-opacity="0" result="BackgroundImageFix"/><feBlend in="SourceGraphic" in2="BackgroundImageFix" result="shape"/><feGaussianBlur stdDeviation=".597" result="effect1_foregroundBlur_2194_156"/></filter></defs></svg>